# xmcd
#
# Track frame offsets:
#	182
#	19867
#	34492
#	50880
#	68540
#	83590
#	100007
#	116497
#	128725
#	141150
#	158852
#	186512
#
# Disc length: 2639 seconds
#
# Revision: 1
# Processed by: cddbd v1.4PL0 Copyright (c) Steve Scherf et al.
# Submitted via: audiograbber 1.80
#
DISCID=a30a4d0c
DTITLE=Black&Soul - Black Disco
DYEAR=1900
DGENRE=
TTITLE0=Cameo - Word Up
TTITLE1=K.C. and the sunshine Band - Get Down Tonight
TTITLE2=Barry WHite - Let The Music Play
TTITLE3=Shirley and Company - Shame Shame Shame
TTITLE4=Anita Ward - Ring My Bell
TTITLE5=Fine Young Cannibals - Jhonny Come Home
TTITLE6=Gene Chandler - Get It Down
TTITLE7=Jow Tex - I Gotcha
TTITLE8=Cornelius Brothers and Sister Rose - Treat Her Like A Lady
TTITLE9=K.S. and Sunshine Band - Keep It Coming Love
TTITLE10=Curtis Mayfield - Kung Fu
TTITLE11=Bobby Womack - Looking For A Love
EXTD=Compilatine della Hobby and Work Italiana
EXTT0=
EXTT1=
EXTT2=
EXTT3=
EXTT4=
EXTT5=
EXTT6=
EXTT7=
EXTT8=
EXTT9=
EXTT10=
EXTT11=
PLAYORDER=
